# Blender v3.0.0 OBJ File: 'ловушки.blend'
# www.blender.org
mtllib Trap6.mtl
o Trap6
v 0.000000 -0.912460 0.000000
v 0.660263 -0.408070 0.479704
v -0.252193 -0.408070 0.776184
v -0.816129 -0.408067 0.000000
v -0.252193 -0.408070 -0.776184
v 0.660263 -0.408070 -0.479704
v 0.252193 0.408070 0.776184
v -0.660263 0.408070 0.479704
v -0.660263 0.408070 -0.479704
v 0.252193 0.408070 -0.776184
v 0.816129 0.408067 0.000000
v 0.000000 0.912460 0.000000
v -0.212440 -0.599960 0.653835
v -0.148234 -0.776188 0.456226
v -0.070813 -0.883216 0.217944
v 0.185395 -0.883216 0.134695
v 0.388090 -0.776188 0.281961
v 0.556187 -0.599960 0.404089
v 0.485375 -0.458330 0.622036
v 0.239857 -0.479715 0.738191
v -0.027045 -0.458331 0.788534
v 0.741583 -0.458329 -0.269393
v 0.776183 -0.479713 0.000000
v 0.741583 -0.458329 0.269393
v 0.185395 -0.883216 -0.134695
v 0.388090 -0.776188 -0.281961
v 0.556187 -0.599960 -0.404089
v -0.687486 -0.599956 0.000000
v -0.479708 -0.776186 0.000000
v -0.229162 -0.883215 0.000000
v -0.441605 -0.458330 0.653837
v -0.627946 -0.479713 0.456227
v -0.758301 -0.458328 0.217944
v -0.212440 -0.599960 -0.653835
v -0.148234 -0.776188 -0.456226
v -0.070813 -0.883216 -0.217944
v -0.758301 -0.458328 -0.217944
v -0.627946 -0.479713 -0.456227
v -0.441605 -0.458330 -0.653837
v -0.027045 -0.458331 -0.788534
v 0.239857 -0.479715 -0.738191
v 0.485375 -0.458330 -0.622036
v 0.872883 0.229164 0.134696
v 0.867803 -0.000000 0.281962
v 0.785353 -0.229165 0.404090
v 0.785353 -0.229165 -0.404090
v 0.867803 0.000000 -0.281962
v 0.872883 0.229164 -0.134696
v 0.141628 0.229166 0.871785
v 0.000000 -0.000000 0.912460
v -0.141628 -0.229166 0.871785
v 0.627005 -0.229166 0.622038
v 0.536331 0.000000 0.738196
v 0.397839 0.229166 0.788537
v -0.785353 0.229165 0.404090
v -0.867803 -0.000000 0.281962
v -0.872883 -0.229164 0.134696
v -0.397839 -0.229166 0.788537
v -0.536331 0.000000 0.738196
v -0.627005 0.229166 0.622038
v -0.627005 0.229166 -0.622038
v -0.536331 -0.000000 -0.738196
v -0.397839 -0.229166 -0.788537
v -0.872883 -0.229164 -0.134696
v -0.867803 0.000000 -0.281962
v -0.785353 0.229165 -0.404090
v 0.397839 0.229166 -0.788537
v 0.536331 -0.000000 -0.738196
v 0.627005 -0.229166 -0.622038
v -0.141628 -0.229166 -0.871785
v 0.000000 0.000000 -0.912460
v 0.141628 0.229166 -0.871785
v 0.758301 0.458328 0.217944
v 0.627946 0.479713 0.456227
v 0.441605 0.458330 0.653837
v 0.027045 0.458331 0.788534
v -0.239857 0.479715 0.738191
v -0.485375 0.458330 0.622036
v -0.741583 0.458329 0.269393
v -0.776183 0.479713 0.000000
v -0.741583 0.458329 -0.269393
v -0.485375 0.458330 -0.622036
v -0.239857 0.479715 -0.738191
v 0.027045 0.458331 -0.788534
v 0.441605 0.458330 -0.653837
v 0.627946 0.479713 -0.456227
v 0.758301 0.458328 -0.217944
v 0.070813 0.883216 0.217944
v 0.148234 0.776188 0.456226
v 0.212440 0.599960 0.653835
v 0.687486 0.599956 0.000000
v 0.479708 0.776186 0.000000
v 0.229162 0.883215 0.000000
v -0.185395 0.883216 0.134695
v -0.388090 0.776188 0.281961
v -0.556187 0.599960 0.404089
v -0.185395 0.883216 -0.134695
v -0.388090 0.776188 -0.281961
v -0.556187 0.599960 -0.404089
v 0.070813 0.883216 -0.217944
v 0.148234 0.776188 -0.456226
v 0.212440 0.599960 -0.653835
v 0.330128 0.816131 -0.239852
v 0.582326 0.660266 -0.239853
v 0.408061 0.660267 -0.479706
v -0.126100 0.816132 -0.388087
v -0.048168 0.660268 -0.627941
v -0.330132 0.660268 -0.536325
v -0.408061 0.816131 0.000000
v -0.612094 0.660266 -0.148236
v -0.612094 0.660266 0.148236
v -0.126100 0.816132 0.388087
v -0.330132 0.660268 0.536325
v -0.048168 0.660268 0.627941
v 0.330128 0.816131 0.239852
v 0.408061 0.660267 0.479706
v 0.582326 0.660266 0.239853
v 0.786362 0.252201 -0.388089
v 0.738198 0.000000 -0.536328
v 0.612097 0.252202 -0.627945
v -0.126101 0.252201 -0.867800
v -0.281965 -0.000000 -0.867802
v -0.408066 0.252202 -0.776183
v -0.864295 0.252200 -0.148236
v -0.912460 0.000001 0.000000
v -0.864294 0.252201 0.148236
v -0.408067 0.252201 0.776183
v -0.281966 -0.000001 0.867801
v -0.126101 0.252201 0.867800
v 0.612097 0.252201 0.627946
v 0.738198 -0.000002 0.536329
v 0.786362 0.252199 0.388091
v 0.281966 -0.000000 -0.867801
v 0.408067 -0.252202 -0.776183
v 0.126101 -0.252202 -0.867800
v -0.738197 -0.000000 -0.536329
v -0.612096 -0.252202 -0.627947
v -0.786361 -0.252201 -0.388091
v -0.738197 0.000000 0.536329
v -0.786361 -0.252201 0.388091
v -0.612096 -0.252202 0.627947
v 0.281966 0.000000 0.867801
v 0.126101 -0.252202 0.867800
v 0.408067 -0.252202 0.776183
v 0.912460 0.000000 0.000000
v 0.864295 -0.252200 0.148236
v 0.864295 -0.252200 -0.148236
v 0.330131 -0.660267 -0.536325
v 0.126099 -0.816131 -0.388089
v 0.048168 -0.660266 -0.627943
v -0.408062 -0.660267 -0.479705
v -0.330129 -0.816131 -0.239852
v -0.582327 -0.660265 -0.239852
v -0.582327 -0.660265 0.239853
v -0.330129 -0.816131 0.239853
v -0.408062 -0.660266 0.479707
v 0.612094 -0.660266 -0.148235
v 0.612094 -0.660266 0.148236
v 0.408062 -0.816131 0.000001
v 0.048169 -0.660267 0.627942
v 0.126101 -0.816131 0.388088
v 0.330133 -0.660266 0.536325
vt 0.590402 0.492932
vt 0.619449 0.471966
vt 0.619334 0.514072
vt 0.736252 0.388503
vt 0.694710 0.417875
vt 0.689392 0.364759
vt 0.579243 0.526986
vt 0.554551 0.492838
vt 0.579427 0.458794
vt 0.740657 0.330688
vt 0.736090 0.597994
vt 0.742489 0.546336
vt 0.788260 0.581035
vt 0.533398 0.663202
vt 0.585499 0.655323
vt 0.563243 0.712911
vt 0.410665 0.494101
vt 0.436172 0.539359
vt 0.379107 0.538712
vt 0.536579 0.321258
vt 0.498766 0.358160
vt 0.483377 0.298204
vt 0.772627 0.343322
vt 0.788397 0.405531
vt 0.772404 0.643225
vt 0.529952 0.721094
vt 0.481152 0.679589
vt 0.354468 0.479702
vt 0.505385 0.272348
vt 0.569166 0.277359
vt 0.940724 0.493398
vt 0.956874 0.439134
vt 0.997340 0.493440
vt 0.697635 0.826112
vt 0.750259 0.824553
vt 0.714562 0.878729
vt 0.308488 0.693929
vt 0.324289 0.747482
vt 0.261052 0.723380
vt 0.301132 0.282029
vt 0.255851 0.316354
vt 0.255206 0.248571
vt 0.693099 0.162834
vt 0.648524 0.135467
vt 0.707871 0.109768
vt 0.214339 0.830548
vt 0.198423 0.885236
vt 0.168745 0.846940
vt 0.270240 0.810451
vt 0.254922 0.872018
vt 0.330228 0.788884
vt 0.321160 0.853728
vt 0.234811 0.932191
vt 0.301002 0.922995
vt 0.273859 0.982578
vt 0.652515 0.071045
vt 0.592249 0.106064
vt 0.586574 0.036579
vt 0.532440 0.076939
vt 0.524629 0.009704
vt 0.319923 0.228405
vt 0.141494 0.886999
vt 0.171524 0.936648
vt 0.209387 0.993991
vt 0.108082 0.936116
vt 0.137282 0.996225
vt 0.072227 0.988824
vt 0.110609 0.578507
vt 0.177056 0.565587
vt 0.154985 0.629407
vt 0.223023 0.613793
vt 0.207735 0.681892
vt 0.268330 0.658819
vt 0.122225 0.833402
vt 0.084286 0.877304
vt 0.041450 0.931035
vt 0.065187 0.816804
vt 0.017044 0.863149
vt 0.003979 0.798992
vt 0.536180 0.987585
vt 0.540589 0.919991
vt 0.596734 0.957595
vt 0.598941 0.887778
vt 0.660950 0.919903
vt 0.653973 0.855528
vt 0.167245 0.798513
vt 0.113767 0.775998
vt 0.049429 0.751863
vt 0.165405 0.739138
vt 0.106451 0.707673
vt 0.163431 0.675422
vt 0.782125 0.880922
vt 0.813773 0.818668
vt 0.856274 0.874102
vt 0.879964 0.810816
vt 0.922957 0.863161
vt 0.956792 0.547685
vt 0.219226 0.772730
vt 0.222299 0.704083
vt 0.281947 0.744658
vt 0.916551 0.118242
vt 0.875307 0.171939
vt 0.849576 0.109487
vt 0.808965 0.166233
vt 0.775276 0.105144
vt 0.745463 0.162472
vt 0.653990 0.194983
vt 0.610269 0.233975
vt 0.599317 0.171886
vt 0.545571 0.217989
vt 0.534028 0.144458
vt 0.418493 0.287848
vt 0.461648 0.234170
vt 0.387556 0.226321
vt 0.355589 0.282992
vt 0.318744 0.333568
vt 0.342651 0.391953
vt 0.274602 0.381369
vt 0.372402 0.450537
vt 0.304789 0.449486
vt 0.241859 0.546551
vt 0.315369 0.534852
vt 0.288121 0.600403
vt 0.350796 0.591411
vt 0.327397 0.645698
vt 0.361048 0.694939
vt 0.421544 0.690622
vt 0.391786 0.751080
vt 0.465576 0.741626
vt 0.538663 0.852430
vt 0.545885 0.778282
vt 0.602657 0.821241
vt 0.610288 0.757221
vt 0.656826 0.795209
vt 0.712772 0.777211
vt 0.728433 0.719214
vt 0.771959 0.766777
vt 0.740819 0.655784
vt 0.793037 0.698773
vt 0.842136 0.754803
vt 0.836833 0.622830
vt 0.843665 0.555510
vt 0.902808 0.588404
vt 0.896534 0.524158
vt 0.896581 0.462570
vt 0.843760 0.431138
vt 0.902951 0.398333
vt 0.837027 0.363809
vt 0.839301 0.229107
vt 0.791875 0.286527
vt 0.768943 0.219282
vt 0.727035 0.267761
vt 0.709861 0.210748
vt 0.379338 0.339001
vt 0.443317 0.346354
vt 0.405949 0.397644
vt 0.464304 0.400903
vt 0.434179 0.446794
vt 0.384610 0.641699
vt 0.410146 0.586607
vt 0.445085 0.635045
vt 0.465605 0.583292
vt 0.498210 0.624959
vt 0.669558 0.738832
vt 0.623251 0.696717
vt 0.682623 0.677616
vt 0.638079 0.640988
vt 0.689157 0.621967
vt 0.845801 0.493325
vt 0.791873 0.523475
vt 0.791923 0.463090
vt 0.744643 0.493240
vt 0.742593 0.440156
vt 0.668500 0.249890
vt 0.682562 0.309770
vt 0.624564 0.291854
vt 0.638895 0.346033
vt 0.587605 0.331520
vt 0.551303 0.370076
vt 0.565986 0.416749
vt 0.517490 0.406773
vt 0.536755 0.453736
vt 0.486167 0.449727
vt 0.510453 0.492816
vt 0.461607 0.493095
vt 0.486693 0.535718
vt 0.536701 0.531767
vt 0.517368 0.578048
vt 0.565491 0.568831
vt 0.550057 0.615093
vt 0.598768 0.605234
vt 0.610748 0.556093
vt 0.649158 0.589011
vt 0.654938 0.540014
vt 0.694500 0.568587
vt 0.599711 0.380935
vt 0.649616 0.397439
vt 0.611141 0.429944
vt 0.655147 0.446250
vt 0.699431 0.519363
vt 0.656649 0.493111
vt 0.699508 0.467024
vn 0.0000 -1.0000 0.0000
vn 0.2109 -0.9654 0.1533
vn -0.0806 -0.9654 0.2480
vn 0.7236 -0.4472 0.5257
vn 0.6042 -0.6650 0.4390
vn 0.8152 -0.5038 0.2857
vn -0.2608 -0.9654 0.0000
vn -0.0806 -0.9654 -0.2480
vn 0.2109 -0.9654 -0.1533
vn 0.8650 -0.2430 0.4390
vn -0.2764 -0.4472 0.8506
vn -0.0198 -0.5038 0.8636
vn -0.1502 -0.2430 0.9583
vn -0.8944 -0.4472 0.0000
vn -0.8274 -0.5038 0.2480
vn -0.9578 -0.2430 0.1533
vn -0.2764 -0.4472 -0.8506
vn -0.4915 -0.5038 -0.7103
vn -0.4417 -0.2430 -0.8636
vn 0.7236 -0.4472 -0.5257
vn 0.5236 -0.5038 -0.6870
vn 0.6848 -0.2430 -0.6870
vn 0.6848 -0.2430 0.6870
vn -0.4417 -0.2430 0.8636
vn -0.9578 -0.2430 -0.1533
vn -0.1502 -0.2430 -0.9583
vn 0.8650 -0.2430 -0.4390
vn 0.2764 0.4472 0.8506
vn 0.4915 0.5038 0.7103
vn 0.2308 0.6650 0.7103
vn -0.7236 0.4472 0.5257
vn -0.5236 0.5038 0.6870
vn -0.6042 0.6650 0.4390
vn -0.7236 0.4472 -0.5257
vn -0.8152 0.5038 -0.2857
vn -0.6042 0.6650 -0.4390
vn 0.2764 0.4472 -0.8506
vn 0.0198 0.5038 -0.8636
vn 0.2308 0.6650 -0.7103
vn 0.8944 0.4472 0.0000
vn 0.8274 0.5038 -0.2480
vn 0.7468 0.6650 0.0000
vn 0.2608 0.9654 0.0000
vn 0.0806 0.9654 -0.2480
vn 0.0000 1.0000 0.0000
vn 0.5257 0.8506 0.0000
vn 0.3682 0.8904 -0.2675
vn 0.6317 0.7275 -0.2675
vn 0.1625 0.8506 -0.5000
vn 0.4496 0.7275 -0.5181
vn 0.6882 0.5257 -0.5000
vn 0.4915 0.5038 -0.7103
vn -0.2109 0.9654 -0.1533
vn -0.1406 0.8904 -0.4328
vn -0.0592 0.7275 -0.6835
vn -0.4253 0.8506 -0.3090
vn -0.3538 0.7275 -0.5877
vn -0.2629 0.5257 -0.8090
vn -0.5236 0.5038 -0.6870
vn -0.2109 0.9654 0.1533
vn -0.4551 0.8904 0.0000
vn -0.6683 0.7275 -0.1549
vn -0.4253 0.8506 0.3090
vn -0.6683 0.7275 0.1549
vn -0.8506 0.5257 0.0000
vn -0.8152 0.5038 0.2857
vn 0.0806 0.9654 0.2480
vn -0.1406 0.8904 0.4328
vn -0.3538 0.7275 0.5877
vn 0.1625 0.8506 0.5000
vn -0.0592 0.7275 0.6835
vn -0.2629 0.5257 0.8090
vn 0.0198 0.5038 0.8636
vn 0.3682 0.8904 0.2675
vn 0.4496 0.7275 0.5181
vn 0.6317 0.7275 0.2675
vn 0.6882 0.5257 0.5000
vn 0.8274 0.5038 0.2480
vn 0.9578 0.2430 -0.1533
vn 0.9510 0.0000 -0.3090
vn 0.8593 0.2724 -0.4328
vn 0.8090 0.0089 -0.5878
vn 0.6772 0.2724 -0.6835
vn 0.5878 0.0000 -0.8090
vn 0.4417 0.2430 -0.8636
vn 0.1502 0.2430 -0.9583
vn 0.0000 0.0000 -1.0000
vn -0.1461 0.2724 -0.9510
vn -0.3090 0.0089 -0.9510
vn -0.4407 0.2724 -0.8553
vn -0.5878 0.0000 -0.8090
vn -0.6848 0.2430 -0.6870
vn -0.8650 0.2430 -0.4390
vn -0.9510 0.0000 -0.3090
vn -0.9496 0.2724 -0.1549
vn -0.9999 0.0089 0.0000
vn -0.9496 0.2724 0.1549
vn -0.9510 0.0000 0.3090
vn -0.8650 0.2430 0.4390
vn -0.6848 0.2430 0.6870
vn -0.5878 0.0000 0.8090
vn -0.4407 0.2724 0.8553
vn -0.3090 0.0089 0.9510
vn -0.1461 0.2724 0.9510
vn 0.0000 0.0000 1.0000
vn 0.1502 0.2430 0.9583
vn 0.4417 0.2430 0.8636
vn 0.5878 0.0000 0.8090
vn 0.6772 0.2724 0.6835
vn 0.8090 0.0089 0.5878
vn 0.8593 0.2724 0.4328
vn 0.9510 0.0000 0.3090
vn 0.9578 0.2430 0.1533
vn 0.3090 -0.0089 -0.9510
vn 0.4407 -0.2724 -0.8553
vn 0.1461 -0.2724 -0.9510
vn 0.2629 -0.5257 -0.8090
vn -0.0198 -0.5038 -0.8636
vn -0.8090 -0.0089 -0.5878
vn -0.6772 -0.2724 -0.6835
vn -0.8593 -0.2724 -0.4328
vn -0.6882 -0.5257 -0.5000
vn -0.8274 -0.5038 -0.2480
vn -0.8090 -0.0089 0.5878
vn -0.8593 -0.2724 0.4328
vn -0.6772 -0.2724 0.6835
vn -0.6882 -0.5257 0.5000
vn -0.4915 -0.5038 0.7103
vn 0.3090 -0.0089 0.9510
vn 0.1461 -0.2724 0.9510
vn 0.4407 -0.2724 0.8553
vn 0.2629 -0.5257 0.8090
vn 0.5236 -0.5038 0.6870
vn 0.9999 -0.0089 0.0000
vn 0.9496 -0.2724 0.1549
vn 0.9496 -0.2724 -0.1549
vn 0.8506 -0.5257 0.0000
vn 0.8152 -0.5038 -0.2857
vn 0.6042 -0.6650 -0.4390
vn 0.4253 -0.8506 -0.3090
vn 0.3538 -0.7275 -0.5878
vn 0.1406 -0.8904 -0.4328
vn 0.0592 -0.7275 -0.6835
vn -0.1625 -0.8506 -0.5000
vn -0.2308 -0.6650 -0.7103
vn -0.4496 -0.7275 -0.5181
vn -0.3682 -0.8904 -0.2675
vn -0.6317 -0.7275 -0.2675
vn -0.5257 -0.8506 0.0000
vn -0.7468 -0.6650 0.0000
vn -0.6317 -0.7275 0.2675
vn -0.3682 -0.8904 0.2675
vn -0.4496 -0.7275 0.5181
vn -0.1625 -0.8506 0.5000
vn -0.2308 -0.6650 0.7103
vn 0.6683 -0.7275 -0.1549
vn 0.6683 -0.7275 0.1549
vn 0.4551 -0.8904 0.0000
vn 0.4253 -0.8506 0.3090
vn 0.0592 -0.7275 0.6835
vn 0.1406 -0.8904 0.4328
vn 0.3538 -0.7275 0.5878
g Trap6_Trap6_Trap6
usemtl Trap6
s 1
f 1/1/1 16/2/2 15/3/3
f 2/4/4 18/5/5 24/6/6
f 1/1/1 15/3/3 30/7/7
f 1/1/1 30/7/7 36/8/8
f 1/1/1 36/8/8 25/9/9
f 2/4/4 24/6/6 45/10/10
f 3/11/11 21/12/12 51/13/13
f 4/14/14 33/15/15 57/16/16
f 5/17/17 39/18/18 63/19/19
f 6/20/20 42/21/21 69/22/22
f 2/4/4 45/23/10 52/24/23
f 3/11/11 51/13/13 58/25/24
f 4/14/14 57/26/16 64/27/25
f 5/17/17 63/19/19 70/28/26
f 6/20/20 69/29/22 46/30/27
f 7/31/28 75/32/29 90/33/30
f 8/34/31 78/35/32 96/36/33
f 9/37/34 81/38/35 99/39/36
f 10/40/37 84/41/38 102/42/39
f 11/43/40 87/44/41 91/45/42
f 93/46/43 100/47/44 12/48/45
f 92/49/46 103/50/47 93/46/43
f 91/51/42 104/52/48 92/49/46
f 93/46/43 103/50/47 100/47/44
f 103/50/47 101/53/49 100/47/44
f 92/49/46 104/52/48 103/50/47
f 104/52/48 105/54/50 103/50/47
f 103/50/47 105/54/50 101/53/49
f 105/54/50 102/55/39 101/53/49
f 91/45/42 87/44/41 104/56/48
f 87/44/41 86/57/51 104/56/48
f 104/56/48 86/57/51 105/58/50
f 86/57/51 85/59/52 105/58/50
f 105/58/50 85/59/52 102/60/39
f 85/61/52 10/40/37 102/42/39
f 100/47/44 97/62/53 12/48/45
f 101/53/49 106/63/54 100/47/44
f 102/55/39 107/64/55 101/53/49
f 100/47/44 106/63/54 97/62/53
f 106/63/54 98/65/56 97/62/53
f 101/53/49 107/64/55 106/63/54
f 107/64/55 108/66/57 106/63/54
f 106/63/54 108/66/57 98/65/56
f 108/66/57 99/67/36 98/65/56
f 102/68/39 84/69/38 107/70/55
f 84/69/38 83/71/58 107/70/55
f 107/70/55 83/71/58 108/72/57
f 83/71/58 82/73/59 108/72/57
f 108/72/57 82/73/59 99/39/36
f 82/73/59 9/37/34 99/39/36
f 97/62/53 94/74/60 12/48/45
f 98/65/56 109/75/61 97/62/53
f 99/67/36 110/76/62 98/65/56
f 97/62/53 109/75/61 94/74/60
f 109/75/61 95/77/63 94/74/60
f 98/65/56 110/76/62 109/75/61
f 110/76/62 111/78/64 109/75/61
f 109/75/61 111/78/64 95/77/63
f 111/78/64 96/79/33 95/77/63
f 99/80/36 81/81/35 110/82/62
f 81/81/35 80/83/65 110/82/62
f 110/82/62 80/83/65 111/84/64
f 80/83/65 79/85/66 111/84/64
f 111/84/64 79/85/66 96/36/33
f 79/85/66 8/34/31 96/36/33
f 94/74/60 88/86/67 12/48/45
f 95/77/63 112/87/68 94/74/60
f 96/79/33 113/88/69 95/77/63
f 94/74/60 112/87/68 88/86/67
f 112/87/68 89/89/70 88/86/67
f 95/77/63 113/88/69 112/87/68
f 113/88/69 114/90/71 112/87/68
f 112/87/68 114/90/71 89/89/70
f 114/90/71 90/91/30 89/89/70
f 96/36/33 78/35/32 113/92/69
f 78/35/32 77/93/72 113/92/69
f 113/92/69 77/93/72 114/94/71
f 77/93/72 76/95/73 114/94/71
f 114/94/71 76/95/73 90/96/30
f 76/97/73 7/31/28 90/33/30
f 88/86/67 93/46/43 12/48/45
f 89/89/70 115/98/74 88/86/67
f 90/91/30 116/99/75 89/89/70
f 88/86/67 115/98/74 93/46/43
f 115/98/74 92/49/46 93/46/43
f 89/89/70 116/99/75 115/98/74
f 116/99/75 117/100/76 115/98/74
f 115/98/74 117/100/76 92/49/46
f 117/100/76 91/51/42 92/49/46
f 90/101/30 75/102/29 116/103/75
f 75/102/29 74/104/77 116/103/75
f 116/103/75 74/104/77 117/105/76
f 74/104/77 73/106/78 117/105/76
f 117/105/76 73/106/78 91/45/42
f 73/106/78 11/43/40 91/45/42
f 48/107/79 87/44/41 11/43/40
f 47/108/80 118/109/81 48/107/79
f 46/30/27 119/110/82 47/108/80
f 48/107/79 118/109/81 87/44/41
f 118/109/81 86/57/51 87/44/41
f 47/108/80 119/110/82 118/109/81
f 119/110/82 120/111/83 118/109/81
f 118/109/81 120/111/83 86/57/51
f 120/111/83 85/59/52 86/57/51
f 46/30/27 69/29/22 119/110/82
f 69/22/22 68/112/84 119/113/82
f 119/113/82 68/112/84 120/114/83
f 68/112/84 67/115/85 120/114/83
f 120/114/83 67/115/85 85/61/52
f 67/115/85 10/40/37 85/61/52
f 72/116/86 84/41/38 10/40/37
f 71/117/87 121/118/88 72/116/86
f 70/119/26 122/120/89 71/117/87
f 72/116/86 121/118/88 84/41/38
f 121/121/88 83/71/58 84/69/38
f 71/117/87 122/120/89 121/118/88
f 122/122/89 123/123/90 121/121/88
f 121/121/88 123/123/90 83/71/58
f 123/123/90 82/73/59 83/71/58
f 70/28/26 63/19/19 122/122/89
f 63/19/19 62/124/91 122/122/89
f 122/122/89 62/124/91 123/123/90
f 62/124/91 61/125/92 123/123/90
f 123/123/90 61/125/92 82/73/59
f 61/125/92 9/37/34 82/73/59
f 66/126/93 81/38/35 9/37/34
f 65/127/94 124/128/95 66/126/93
f 64/27/25 125/129/96 65/127/94
f 66/126/93 124/128/95 81/38/35
f 124/130/95 80/83/65 81/81/35
f 65/127/94 125/129/96 124/128/95
f 125/131/96 126/132/97 124/130/95
f 124/130/95 126/132/97 80/83/65
f 126/132/97 79/85/66 80/83/65
f 64/27/25 57/26/16 125/129/96
f 57/16/16 56/133/98 125/131/96
f 125/131/96 56/133/98 126/132/97
f 56/133/98 55/134/99 126/132/97
f 126/132/97 55/134/99 79/85/66
f 55/134/99 8/34/31 79/85/66
f 60/135/100 78/35/32 8/34/31
f 59/136/101 127/137/102 60/135/100
f 58/138/24 128/139/103 59/136/101
f 60/135/100 127/137/102 78/35/32
f 127/137/102 77/93/72 78/35/32
f 59/136/101 128/139/103 127/137/102
f 128/139/103 129/140/104 127/137/102
f 127/137/102 129/140/104 77/93/72
f 129/140/104 76/95/73 77/93/72
f 58/25/24 51/13/13 128/141/103
f 51/13/13 50/142/105 128/141/103
f 128/141/103 50/142/105 129/143/104
f 50/142/105 49/144/106 129/143/104
f 129/143/104 49/144/106 76/97/73
f 49/144/106 7/31/28 76/97/73
f 54/145/107 75/32/29 7/31/28
f 53/146/108 130/147/109 54/145/107
f 52/24/23 131/148/110 53/146/108
f 54/145/107 130/147/109 75/32/29
f 130/149/109 74/104/77 75/102/29
f 53/146/108 131/148/110 130/147/109
f 131/150/110 132/151/111 130/149/109
f 130/149/109 132/151/111 74/104/77
f 132/151/111 73/106/78 74/104/77
f 52/24/23 45/23/10 131/148/110
f 45/10/10 44/152/112 131/150/110
f 131/150/110 44/152/112 132/151/111
f 44/152/112 43/153/113 132/151/111
f 132/151/111 43/153/113 73/106/78
f 43/153/113 11/43/40 73/106/78
f 67/115/85 72/116/86 10/40/37
f 68/112/84 133/154/114 67/115/85
f 69/22/22 134/155/115 68/112/84
f 67/115/85 133/154/114 72/116/86
f 133/154/114 71/117/87 72/116/86
f 68/112/84 134/155/115 133/154/114
f 134/155/115 135/156/116 133/154/114
f 133/154/114 135/156/116 71/117/87
f 135/156/116 70/119/26 71/117/87
f 69/22/22 42/21/21 134/155/115
f 42/21/21 41/157/117 134/155/115
f 134/155/115 41/157/117 135/156/116
f 41/157/117 40/158/118 135/156/116
f 135/156/116 40/158/118 70/119/26
f 40/158/118 5/17/17 70/119/26
f 61/125/92 66/126/93 9/37/34
f 62/124/91 136/159/119 61/125/92
f 63/19/19 137/160/120 62/124/91
f 61/125/92 136/159/119 66/126/93
f 136/159/119 65/127/94 66/126/93
f 62/124/91 137/160/120 136/159/119
f 137/160/120 138/161/121 136/159/119
f 136/159/119 138/161/121 65/127/94
f 138/161/121 64/27/25 65/127/94
f 63/19/19 39/18/18 137/160/120
f 39/18/18 38/162/122 137/160/120
f 137/160/120 38/162/122 138/161/121
f 38/162/122 37/163/123 138/161/121
f 138/161/121 37/163/123 64/27/25
f 37/163/123 4/14/14 64/27/25
f 55/134/99 60/135/100 8/34/31
f 56/133/98 139/164/124 55/134/99
f 57/16/16 140/165/125 56/133/98
f 55/134/99 139/164/124 60/135/100
f 139/164/124 59/136/101 60/135/100
f 56/133/98 140/165/125 139/164/124
f 140/165/125 141/166/126 139/164/124
f 139/164/124 141/166/126 59/136/101
f 141/166/126 58/138/24 59/136/101
f 57/16/16 33/15/15 140/165/125
f 33/15/15 32/167/127 140/165/125
f 140/165/125 32/167/127 141/166/126
f 32/167/127 31/168/128 141/166/126
f 141/166/126 31/168/128 58/138/24
f 31/168/128 3/11/11 58/138/24
f 49/144/106 54/145/107 7/31/28
f 50/142/105 142/169/129 49/144/106
f 51/13/13 143/170/130 50/142/105
f 49/144/106 142/169/129 54/145/107
f 142/169/129 53/146/108 54/145/107
f 50/142/105 143/170/130 142/169/129
f 143/170/130 144/171/131 142/169/129
f 142/169/129 144/171/131 53/146/108
f 144/171/131 52/24/23 53/146/108
f 51/13/13 21/12/12 143/170/130
f 21/12/12 20/172/132 143/170/130
f 143/170/130 20/172/132 144/171/131
f 20/172/132 19/173/133 144/171/131
f 144/171/131 19/173/133 52/24/23
f 19/173/133 2/4/4 52/24/23
f 43/153/113 48/107/79 11/43/40
f 44/152/112 145/174/134 43/153/113
f 45/10/10 146/175/135 44/152/112
f 43/153/113 145/174/134 48/107/79
f 145/174/134 47/108/80 48/107/79
f 44/152/112 146/175/135 145/174/134
f 146/175/135 147/176/136 145/174/134
f 145/174/134 147/176/136 47/108/80
f 147/176/136 46/30/27 47/108/80
f 45/10/10 24/6/6 146/175/135
f 24/6/6 23/177/137 146/175/135
f 146/175/135 23/177/137 147/176/136
f 23/177/137 22/178/138 147/176/136
f 147/176/136 22/178/138 46/30/27
f 22/178/138 6/20/20 46/30/27
f 27/179/139 42/21/21 6/20/20
f 26/180/140 148/181/141 27/179/139
f 25/9/9 149/182/142 26/180/140
f 27/179/139 148/181/141 42/21/21
f 148/181/141 41/157/117 42/21/21
f 26/180/140 149/182/142 148/181/141
f 149/182/142 150/183/143 148/181/141
f 148/181/141 150/183/143 41/157/117
f 150/183/143 40/158/118 41/157/117
f 25/9/9 36/8/8 149/182/142
f 36/8/8 35/184/144 149/182/142
f 149/182/142 35/184/144 150/183/143
f 35/184/144 34/185/145 150/183/143
f 150/183/143 34/185/145 40/158/118
f 34/185/145 5/17/17 40/158/118
f 34/185/145 39/18/18 5/17/17
f 35/184/144 151/186/146 34/185/145
f 36/8/8 152/187/147 35/184/144
f 34/185/145 151/186/146 39/18/18
f 151/186/146 38/162/122 39/18/18
f 35/184/144 152/187/147 151/186/146
f 152/187/147 153/188/148 151/186/146
f 151/186/146 153/188/148 38/162/122
f 153/188/148 37/163/123 38/162/122
f 36/8/8 30/7/7 152/187/147
f 30/7/7 29/189/149 152/187/147
f 152/187/147 29/189/149 153/188/148
f 29/189/149 28/190/150 153/188/148
f 153/188/148 28/190/150 37/163/123
f 28/190/150 4/14/14 37/163/123
f 28/190/150 33/15/15 4/14/14
f 29/189/149 154/191/151 28/190/150
f 30/7/7 155/192/152 29/189/149
f 28/190/150 154/191/151 33/15/15
f 154/191/151 32/167/127 33/15/15
f 29/189/149 155/192/152 154/191/151
f 155/192/152 156/193/153 154/191/151
f 154/191/151 156/193/153 32/167/127
f 156/193/153 31/168/128 32/167/127
f 30/7/7 15/3/3 155/192/152
f 15/3/3 14/194/154 155/192/152
f 155/192/152 14/194/154 156/193/153
f 14/194/154 13/195/155 156/193/153
f 156/193/153 13/195/155 31/168/128
f 13/195/155 3/11/11 31/168/128
f 22/178/138 27/179/139 6/20/20
f 23/177/137 157/196/156 22/178/138
f 24/6/6 158/197/157 23/177/137
f 22/178/138 157/196/156 27/179/139
f 157/196/156 26/180/140 27/179/139
f 23/177/137 158/197/157 157/196/156
f 158/197/157 159/198/158 157/196/156
f 157/196/156 159/198/158 26/180/140
f 159/198/158 25/9/9 26/180/140
f 24/6/6 18/5/5 158/197/157
f 18/5/5 17/199/159 158/197/157
f 158/197/157 17/199/159 159/198/158
f 17/199/159 16/2/2 159/198/158
f 159/198/158 16/2/2 25/9/9
f 16/2/2 1/1/1 25/9/9
f 13/195/155 21/12/12 3/11/11
f 14/194/154 160/200/160 13/195/155
f 15/3/3 161/201/161 14/194/154
f 13/195/155 160/200/160 21/12/12
f 160/200/160 20/172/132 21/12/12
f 14/194/154 161/201/161 160/200/160
f 161/201/161 162/202/162 160/200/160
f 160/200/160 162/202/162 20/172/132
f 162/202/162 19/173/133 20/172/132
f 15/3/3 16/2/2 161/201/161
f 16/2/2 17/199/159 161/201/161
f 161/201/161 17/199/159 162/202/162
f 17/199/159 18/5/5 162/202/162
f 162/202/162 18/5/5 19/173/133
f 18/5/5 2/4/4 19/173/133
